<?xml version="1.0" encoding="UTF-8"?>
<svg id="Layer_1" data-name="Layer 1" xmlns="http://www.w3.org/2000/svg" viewBox="0 0 338.73 384.22">
  <defs>
    <style>
      .cls-1, .cls-2 {
        fill: #ef6825;
      }

      .cls-2 {
        stroke: #fff;
        stroke-miterlimit: 10;
      }
    </style>
  </defs>
  <path class="cls-2" d="M276.6,61.1c7.19,7.49,15.54,14.21,22.34,22.19,3.86,1.06,14.96-7.1,19.27-8.42,1.67.8,19.83,29.27,20,31.11.51,5.49-17.66,14.8-18.05,18.95,16.57,44.15,18.18,95.75-2.81,138.68l18.86,19.13c-6.86,7.99-11.95,19.67-18.6,27.38-.9,1.05-1.82,2.94-3.45,2.67l-16.63-9.44-29.13,26.49c.6,4.13,11.36,19.6,9.71,22.22l-30.8,15.68-16.5-18.23c-6.64,1.91-13.65,5.81-20.3,7.35-3.74.87-12.39.89-14.2,1.78-2.92,1.44-4.46,20.31-4.98,24.49l-41.02.57-6.17-24.32c-1.43-1.48-13.5-1.94-16.8-2.68-5.02-1.13-12.91-5.99-16.7-6.39-5.65-.59-10.4,16.24-16.79,16.83l-32.3-16.64,8.73-20.03-28.48-28.17c-4.72-1.57-17.37,12.41-20.34,10.47L1.47,280.69l.17-1.32,19.92-14.56c2.11-2.78-2.15-7.18-3.55-10.57-16.62-40.09-13.36-94.27,2.56-134.24-4.76-2.75-9.67-5.77-13.98-9.19-1.55-1.23-6.04-4.41-6.09-5.86,5.91-11.52,13.35-22.59,21.62-32.38l19.41,10.38,2.66-.23,24.12-22.9-9.75-21.01.91-1.82,31.63-17.4,13.95,15.75c12.83-5.52,26.68-7.76,40.37-10.31,1.28-.9,1.69-15.59,2.22-18.76.38-2.25.61-5.64,3.22-5.77l39.84.14c3.2,1.09,3.95,20.55,7.06,23.91,2.32,2.35,14.64,3.9,18.76,5.22s12.65,6.14,15.51,6.57c1.76.26,2.14-.29,3.32-1.29,3.84-3.23,8.27-11.16,11.9-15.12l34.55,16.53c1.21,1.89-5.63,18.32-7.19,21.5,0,.54,1.46,2.57,2,3.14ZM154.16,45.76C26.15,55.52-20.03,220.67,73.43,304.73c90.19,81.11,233.93,20.74,242.76-97.93,7.05-94.72-67.85-168.21-162.03-161.03Z"/>
  <path class="cls-1" d="M159.15,56.75c99.8-7.11,170.83,85.37,139.35,180.31-29.69,89.56-142.27,125.71-215.09,61.67C-6.86,219.34,35.13,65.58,159.15,56.75ZM191.33,275.24v38.46c0,1.82,4.45,9.68,6.72,10.32,7.16,2.03,33.16-10.99,40.16-15.4,73.77-46.41,87.24-152.5,21.58-212.24C186.09,29.33,69.93,59.79,42.76,156.15c-18.12,64.25,17.4,139.44,80.39,162.81,4.01,1.49,15.99,5.89,19.53,5.08,2.18-.5,6.69-8.6,6.69-10.33v-38.46h6.99v48.95c2.4.27,3.55-.02,4-2.5v-46.45h19.48l1.5,1.5v45.46c1.24-.18,4-3.88,4-4.5v-42.46h5.99Z"/>
  <path class="cls-1" d="M197.32,251.27h-24.98v-40.96l-4-1v41.96h-25.97c1-10.63-.02-21.64-.04-32.51-.01-9.29-.1-18.78,0-27.89.24-23.86,1.01-47.79,3.04-71.47h47.45c2.32,0,3.38,8.5,3.53,10.45,2.82,36.32-1.34,73.64-.08,109.97.13,3.69,1.78,7.49,1.04,11.45ZM164.35,123.39v43.96h11.99c-.48-14.52-2.41-29.52,0-43.95h-11.98Z"/>
  <path class="cls-1" d="M139.38,175.34v71.93c-4.09-2.38-7.35,4-10.49,4h-27.97c-.41,0-1.64-1.46-1.25-2.28l.48-31.39c11.62-14.29,24.76-27.18,36.95-40.97.6-.68-.07-1.9,2.28-1.28Z"/>
  <path class="cls-1" d="M210.81,251.27c-1.45-.32-9.19-5.86-9.5-7.49l1.02-68.44c9.17,11.97,22.52,22.14,31.47,33.95,1.5,1.98,5.27,7.04,5.93,9.06,2.48,7.57-.82,22.05,1.29,30.63l-1.23,2.28c-8.24-1.23-21.4,1.66-28.97,0Z"/>
  <path class="cls-1" d="M148.87,115.4c-4.26-1.32.91-15.64,2.32-18.66,2.14-4.6,13.66-21.32,18.68-21.31,10.05,6.06,20.99,20.01,23.38,31.55.4,1.92,1.17,7.23-.42,8.42h-43.96Z"/>
  <path class="cls-1" d="M256.26,212.31v58.44l-1.65,1.34c-1.26.28-2.55.22-3.84.22-2.05,0-4.23.33-5.49-1.56v-55.95c0-.25-.81-.59-.77-1l1.39-1.38,10.37-.12Z"/>
  <path class="cls-1" d="M95.42,212.31v58.44c-2.17,2.55-6.29,1.44-9.35,1.35l-1.2-.79c-.58-19.3-.44-39.36-.44-59.02h10.99Z"/>
  <path class="cls-1" d="M172.34,272.25v-16.98h23.48c2.46,2.01,2,15.45.53,16.57l-24,.42Z"/>
  <path class="cls-1" d="M168.35,255.26v15.48c-.75,1.02-.87,1.08-2.04,1.09-7.6.02-15.31-1.4-22.98,0l-.85-14.92,1.39-1.65h24.48Z"/>
</svg>