<?xml version="1.0" encoding="UTF-8"?>
<svg id="Layer_1" data-name="Layer 1" xmlns="http://www.w3.org/2000/svg" viewBox="0 0 929.62 384.22">
  <defs>
    <style>
      .cls-1, .cls-2 {
        fill: #fff;
      }

      .cls-1, .cls-3 {
        stroke: #fff;
        stroke-miterlimit: 10;
      }

      .cls-3, .cls-4 {
        fill: #f16522;
      }
    </style>
  </defs>
  <path class="cls-1" d="M561.62,61.1c7.19,7.49,15.54,14.21,22.34,22.19,3.86,1.06,14.96-7.1,19.27-8.42,1.67.8,19.83,29.27,20,31.11.51,5.49-17.66,14.8-18.05,18.95,16.57,44.15,18.18,95.75-2.81,138.68l18.86,19.13c-6.86,7.99-11.95,19.67-18.6,27.38-.9,1.05-1.82,2.94-3.45,2.67l-16.63-9.44-29.13,26.49c.6,4.13,11.36,19.6,9.71,22.22l-30.8,15.68-16.5-18.23c-6.64,1.91-13.65,5.81-20.3,7.35-3.74.87-12.39.89-14.2,1.78-2.92,1.44-4.46,20.31-4.98,24.49l-41.02.57-6.17-24.32c-1.43-1.48-13.5-1.94-16.8-2.68-5.02-1.13-12.91-5.99-16.7-6.39-5.65-.59-10.4,16.24-16.79,16.83l-32.3-16.64,8.73-20.03-28.48-28.17c-4.72-1.57-17.37,12.41-20.34,10.47l-20-32.1.17-1.32,19.92-14.56c2.11-2.78-2.15-7.18-3.55-10.57-16.62-40.09-13.36-94.27,2.56-134.24-4.76-2.75-9.67-5.77-13.98-9.19-1.55-1.23-6.04-4.41-6.09-5.86,5.91-11.52,13.35-22.59,21.62-32.38l19.41,10.38,2.66-.23,24.12-22.9-9.75-21.01.91-1.82,31.63-17.4,13.95,15.75c12.83-5.52,26.68-7.76,40.37-10.31,1.28-.9,1.69-15.59,2.22-18.76.38-2.25.61-5.64,3.22-5.77l39.84.14c3.2,1.09,3.95,20.55,7.06,23.91,2.32,2.35,14.64,3.9,18.76,5.22s12.65,6.14,15.51,6.57c1.76.26,2.14-.29,3.32-1.29,3.84-3.23,8.27-11.16,11.9-15.12l34.55,16.53c1.21,1.89-5.63,18.32-7.19,21.5,0,.54,1.46,2.57,2,3.14ZM439.18,45.76c-128.01,9.75-174.19,174.91-80.73,258.97,90.19,81.11,233.93,20.74,242.76-97.93,7.05-94.72-67.85-168.21-162.03-161.03Z"/>
  <path class="cls-3" d="M795.53,121.39c1.32.43,7.92,18.18,8.95,21.02,5.9,16.2,10.49,36.22,17.32,51.61.68,1.53,1.44,3.74,3.18,4.3.73-1.62-.99-3.72-.99-4.5v-72.43h19.98l.84,129.27c-.81,2.51-2.18.6-2.33.6h-16.98l-30.97-76.9,1.29,75.2-2.25,2.31-16.07.15-1.31-1.39,1.35-129.23h17.98Z"/>
  <path class="cls-3" d="M249.07,121.39c6.94.98,16.94,8.51,18.25,15.72.79,4.33,1.06,13.76,1.27,18.71.35,8.4,1.11,25.29-.1,32.95-1.06,6.73-11.82,10.57-11.89,12.96l15.94,49.52c-7.34.44-14.79,1.33-21.73-.24l-14.78-48.65c-1.69-2.47-4.57-3.31-7.44-3.05v51.95h-19.98V121.39c12.53,1.27,28.34-1.71,40.46,0ZM228.59,182.33h15.48c.38,0,2.43-2.51,2.74-3.25,1.6-3.76,1.26-31.96-.52-35.93-2.2-4.92-13.67-6.39-17.71-3.27v42.46Z"/>
  <path class="cls-3" d="M879.95,174.34c2.28.4,1.59-.1,2.23-1.28,7.92-14.54,13.15-33.89,20.87-48.05.7-1.28,1.2-2.65,2.37-3.62h20.48l-27.59,62.44c10.18,22.82,22.14,44.85,30.59,68.44h-20.48l-25.98-55.95-2.03,7.71-.46,48.24h-19.98V121.39h18.48l1.5,1.5v51.45Z"/>
  <path class="cls-3" d="M196.62,251.27h-20.98l-2.95-24.56-20.46-.28c-3.58.88-3.23,21.28-5.06,24.92l-18.51.42,20.2-128.65c1.79-4.5,5.05-1.59,8.3-1.64,4.76-.07,9.19-.16,13.93-.13,2.03.02,4.76-1.97,6.05.02.61.94.86,4.29,1.17,5.83,3.57,17.57,4.75,37.54,7.43,55.51,3.41,22.86,7.56,45.69,10.85,68.57ZM163.65,157.36c-1.92-2.57-2.66,4.77-2.83,5.66-2.77,14.52-2.44,30.25-5.2,44.84l.48,2.52,12.57.94-5-53.95Z"/>
  <path class="cls-3" d="M669.16,159.36v-17.98c-5.69-2.42-12.68-3-18.58-1.1-2.98,2.35-.33,12.47-2.12,16.47,11.01,16.61,26.69,29.14,39.93,43.83,2.29,5.94-.14,12.51-.29,18.19-.27,10.51,2.7,30.09-11.66,33.3-5.16,1.15-26.79.81-32.8.25-2.76-.26-4.56-.47-6.96-2.03-1.67-1.08-7.49-7.92-7.49-9.5v-26.97l1.46-1.26,16.56.17c2.4,1.81-1.16,18.13,4.96,21.07,1.44.69,13.93.79,15.37.26,1.32-.48,1.4-.99,1.62-2.26.45-2.65.33-19.58-.52-21.46-7.3-11.8-35.3-31.13-38.77-43.15-1.36-4.7-1.33-25.93-.59-31.21,1.17-8.26,9.48-13.91,17.36-14.61,9.54-.85,28.91-1.06,36.84,4.2,7.29,4.83,4.23,10.81,4.56,17.32.13,2.47,2.21,16.48-.4,16.48h-18.48Z"/>
  <path class="cls-3" d="M20.79,228.79c1.12,5.28,18.76,8.09,20.66-1.78.29-1.48-.4-14.59-.7-16.18-.26-1.38-.81-1.67-1.42-2.58-9.36-14.15-35.68-26.21-37.51-44.41-.55-5.46-.96-30.01.75-34.2,1.48-3.64,9.05-7.64,12.82-8.16,5.6-.77,30.4-.76,34.78,1,6.54,2.64,9.88,8.58,10.57,15.4.74,7.24-2.19,13.89.01,20.47h-19.98v-16.48c0-3.68-16.48-4.57-19.01-2.02-1.48,1.5-1.38,16.1-.76,18.79,1.61,7.04,27.61,28.55,33.78,36.15,3.46,4.26,4.52,6.31,5.01,11.98.57,6.66,1.03,30.14-.24,35.79-.85,3.77-5.98,7.4-9.55,8.44-6.92,2.02-31.6,2.21-38.21-.23-10.11-3.73-10.54-14.52-11.02-23.94-.17-3.4-1.24-15.38,2.53-15.56,1.4-.07,2.94,1,4.12.94,4.27-.22,8.81-1.65,13.38-.91.73,5.11-1,12.77,0,17.48Z"/>
  <path class="cls-3" d="M720.11,201.82c-1.33-8.49-10.12-27.06-13.26-36.69-4.59-14.07-8.54-28.36-13.68-42.25l2.04-1.09,20.91.6,13.48,50.94,16.98-51.93h18.48c-2.35,11.36-5.9,22.83-9.51,33.95-2.26,6.97-16.47,41.92-16.47,45.47v50.45l-18.98,1v-50.45Z"/>
  <polygon class="cls-3" points="132.68 121.39 132.68 141.37 111.2 141.37 110.55 250.61 108.45 252.07 90.72 251.27 90.72 142.87 89.22 141.37 69.74 141.37 69.74 121.39 132.68 121.39"/>
  <path class="cls-4" d="M444.17,56.75c99.8-7.11,170.83,85.37,139.35,180.31-29.69,89.56-142.27,125.71-215.09,61.67-90.28-79.4-48.29-233.15,75.73-241.98ZM476.35,275.24v38.46c0,1.82,4.45,9.68,6.72,10.32,7.16,2.03,33.16-10.99,40.16-15.4,73.77-46.41,87.24-152.5,21.58-212.24-73.7-67.06-189.85-36.6-217.03,59.75-18.12,64.25,17.4,139.44,80.39,162.81,4.01,1.49,15.99,5.89,19.53,5.08,2.18-.5,6.69-8.6,6.69-10.33v-38.46h6.99v48.95c2.4.27,3.55-.02,4-2.5v-46.45h19.48l1.5,1.5v45.46c1.24-.18,4-3.88,4-4.5v-42.46h5.99Z"/>
  <path class="cls-2" d="M482.34,251.27h-24.98v-40.96l-4-1v41.96h-25.97c1-10.63-.02-21.64-.04-32.51-.01-9.29-.1-18.78,0-27.89.24-23.86,1.01-47.79,3.04-71.47h47.45c2.32,0,3.38,8.5,3.53,10.45,2.82,36.32-1.34,73.64-.08,109.97.13,3.69,1.78,7.49,1.04,11.45ZM449.37,123.39v43.96h11.99c-.48-14.52-2.41-29.52,0-43.95h-11.98Z"/>
  <path class="cls-2" d="M424.4,175.34v71.93c-4.09-2.38-7.35,4-10.49,4h-27.97c-.41,0-1.64-1.46-1.25-2.28l.48-31.39c11.62-14.29,24.76-27.18,36.95-40.97.6-.68-.07-1.9,2.28-1.28Z"/>
  <path class="cls-2" d="M495.83,251.27c-1.45-.32-9.19-5.86-9.5-7.49l1.02-68.44c9.17,11.97,22.52,22.14,31.47,33.95,1.5,1.98,5.27,7.04,5.93,9.06,2.48,7.57-.82,22.05,1.29,30.63l-1.23,2.28c-8.24-1.23-21.4,1.66-28.97,0Z"/>
  <path class="cls-2" d="M433.89,115.4c-4.26-1.32.91-15.64,2.32-18.66,2.14-4.6,13.66-21.32,18.68-21.31,10.05,6.06,20.99,20.01,23.38,31.55.4,1.92,1.17,7.23-.42,8.42h-43.96Z"/>
  <path class="cls-4" d="M541.28,212.31v58.44l-1.65,1.34c-1.26.28-2.55.22-3.84.22-2.05,0-4.23.33-5.49-1.56v-55.95c0-.25-.81-.59-.77-1l1.39-1.38,10.37-.12Z"/>
  <path class="cls-4" d="M380.44,212.31v58.44c-2.17,2.55-6.29,1.44-9.35,1.35l-1.2-.79c-.58-19.3-.44-39.36-.44-59.02h10.99Z"/>
  <path class="cls-2" d="M457.37,272.25v-16.98h23.48c2.46,2.01,2,15.45.53,16.57l-24,.42Z"/>
  <path class="cls-2" d="M453.37,255.26v15.48c-.75,1.02-.87,1.08-2.04,1.09-7.6.02-15.31-1.4-22.98,0l-.85-14.92,1.39-1.65h24.48Z"/>
</svg>